PathFileType	4	(X/Y/Z)	C:/Users/CLatella/Desktop/xsens/3Novembre/Meri/Meri-020.trc	
DataRate	CameraRate	NumFrames	NumMarkers	Units	OrigDataRate	OrigDataStartFrame	OrigNumFrames	
240.00	240.00	4	64	mm	240.00	929	1238	
Frame#	Time	pHipOrigin			pRightASI			pLeftASI			pRightCSI			pLeftCSI			pRightIschialTub			pLeftIschialTub			pSacrum			pL5SpinalProcess			pL3SpinalProcess			pT12SpinalProcess			pPX			pIJ			pT4SpinalProcess			pT8SpinalProcess			pC7SpinalProcess			pTopOfHead			pRightAuricularis			pLeftAuricularis			pBackOfHead			pRightAcromion			pLeftAcromion			pRightArmLatEpicondyle			pRightArmMedEpicondyle			pLeftArmLatEpicondyle			pLeftArmMedEpicondyle			pRightUlnarStyloid			pRightRadialStyloid			pRightOlecranon			pLeftUlnarStyloid			pLeftRadialStyloid			pLeftOlecranon			pRightTopOfHand			pRightPinky			pRightBallHand			pLeftTopOfHand			pLeftPinky			pLeftBallHand			pRightGreaterTrochanter			pRightKneeLatEpicondyle			pRightKneeMedEpicondyle			pRightPatella			pLeftGreaterTrochanter			pLeftKneeLatEpicondyle			pLeftKneeMedEpicondyle			pLeftPatella			pRightLatMalleolus			pRightMedMalleolus			pRightTibialTub			pLeftLatMalleolus			pLeftMedMalleolus			pLeftTibialTub			pRightHeelFoot			pRightFirstMetatarsal			pRightFifthMetatarsal			pRightPivotFoot			pRightHeelCenter			pRightToe			pLeftHeelFoot			pLeftFirstMetatarsal			pLeftFifthMetatarsal			pLeftPivotFoot			pLeftHeelCenter			pLeftToe			
		X1	Y1	Z1	X2	Y2	Z2	X3	Y3	Z3	X4	Y4	Z4	X5	Y5	Z5	X6	Y6	Z6	X7	Y7	Z7	X8	Y8	Z8	X9	Y9	Z9	X10	Y10	Z10	X11	Y11	Z11	X12	Y12	Z12	X13	Y13	Z13	X14	Y14	Z14	X15	Y15	Z15	X16	Y16	Z16	X17	Y17	Z17	X18	Y18	Z18	X19	Y19	Z19	X20	Y20	Z20	X21	Y21	Z21	X22	Y22	Z22	X23	Y23	Z23	X24	Y24	Z24	X25	Y25	Z25	X26	Y26	Z26	X27	Y27	Z27	X28	Y28	Z28	X29	Y29	Z29	X30	Y30	Z30	X31	Y31	Z31	X32	Y32	Z32	X33	Y33	Z33	X34	Y34	Z34	X35	Y35	Z35	X36	Y36	Z36	X37	Y37	Z37	X38	Y38	Z38	X39	Y39	Z39	X40	Y40	Z40	X41	Y41	Z41	X42	Y42	Z42	X43	Y43	Z43	X44	Y44	Z44	X45	Y45	Z45	X46	Y46	Z46	X47	Y47	Z47	X48	Y48	Z48	X49	Y49	Z49	X50	Y50	Z50	X51	Y51	Z51	X52	Y52	Z52	X53	Y53	Z53	X54	Y54	Z54	X55	Y55	Z55	X56	Y56	Z56	X57	Y57	Z57	X58	Y58	Z58	X59	Y59	Z59	X60	Y60	Z60	X61	Y61	Z61	X62	Y62	Z62	X63	Y63	Z63	X64	Y64	Z64	

929	3.867	182.93446	84.73653	930.14286	246.77567	-35.51199	1003.97967	249.08621	204.03069	1003.52761	212.56964	-14.26507	1075.95800	214.47835	183.68790	1075.60640	129.33999	35.66268	883.48001	130.29434	134.66427	883.32932	115.17537	85.43973	954.00170	151.89286	85.38951	1025.77911	160.08021	83.58126	1130.05476	171.78359	81.06980	1221.57222	322.97325	75.34368	1280.23984	341.55802	70.52169	1389.28726	205.23619	74.08795	1391.19596	188.35920	77.70445	1311.93441	215.08110	72.53085	1439.16477	387.21629	67.20656	1627.97604	320.11019	3.26489	1557.25344	327.69479	133.50900	1552.83328	277.21452	71.82764	1576.03913	248.88529	-101.01076	1390.79413	237.68420	249.63873	1397.87644	354.51714	-73.58566	1092.38292	339.44840	-14.46599	1092.78476	346.68139	217.64278	1099.11363	324.37966	160.83365	1097.30538	419.51362	-32.24710	874.08716	456.53248	-8.48872	890.86369	328.79983	-58.26578	1084.84856	415.64598	187.40485	881.92291	443.07108	151.69195	895.73591	322.42073	209.35498	1092.08155	559.80355	-30.43885	761.82508	488.27729	-53.34333	795.88042	446.73780	-29.38404	846.00908	553.12308	230.40098	786.43735	483.70644	238.38741	830.13668	439.35412	195.59220	862.08240	178.11246	-63.94167	903.37074	169.52328	-45.25644	522.78469	175.19917	28.12831	520.52438	213.67468	-9.24216	523.38744	178.86590	234.62022	906.23380	157.71944	232.25946	525.69798	163.19441	158.97517	520.12255	201.77038	196.19495	523.28698	157.36784	-61.68136	97.59518	168.51870	0.00000	93.67731	237.58374	-19.38844	486.92110	148.57774	251.24606	98.70022	152.49561	188.66058	94.68189	226.43288	199.66076	487.37316	123.76455	-25.26525	2.41100	271.53863	-21.49806	2.10962	258.52929	-86.94661	3.66673	283.79453	-57.01005	2.96352	162.59166	-32.90007	6.83116	359.18844	-71.97833	2.21008	108.24376	215.83453	4.77177	255.36485	202.37313	0.15069	246.72544	268.57511	1.10504	269.93130	237.03122	0.10046	147.62339	220.90767	7.93620	346.07864	247.07705	-2.96352 
930	3.871	183.33629	84.78676	930.09263	247.07705	-35.46176	1004.02990	249.33736	204.08092	1003.62807	212.77056	-14.21484	1076.00823	214.62903	183.78835	1075.65663	129.84228	35.71291	883.37955	130.74640	134.71450	883.22886	115.52698	85.43973	953.85101	152.14401	85.43973	1025.72888	160.13044	83.58126	1129.95431	171.53245	81.12003	1221.52199	322.57142	75.39391	1280.64167	340.80459	70.62214	1389.78955	204.53298	74.18841	1391.24619	187.85691	77.75468	1311.88418	214.22720	72.68154	1439.26523	386.21171	67.35725	1628.27742	319.10561	3.41558	1557.50458	326.69020	133.65969	1553.08442	276.20994	71.97833	1576.29028	248.18209	-100.96053	1390.84436	236.88053	249.73919	1398.02712	354.16553	-73.23406	1092.58384	339.14702	-14.11438	1092.98567	346.38002	217.64278	1099.41500	324.12852	160.83365	1097.60675	419.41316	-31.74480	874.38854	456.38179	-7.98643	891.21529	328.44822	-57.91418	1085.04947	415.64598	187.30439	882.37497	443.07108	151.59149	896.23821	322.11935	209.35498	1092.33269	559.80355	-29.78587	762.27714	488.27729	-52.74058	796.23203	446.63734	-28.78129	846.31046	553.22354	230.30052	786.98987	483.70644	238.23672	830.58874	439.35412	195.44151	862.48424	178.56453	-63.94167	903.32051	169.77443	-45.25644	522.78469	175.45032	28.12831	520.52438	213.92583	-9.19193	523.33721	179.26773	234.67045	906.18357	157.92036	232.25946	525.69798	163.34510	158.97517	520.12255	201.97130	196.14472	523.28698	157.36784	-61.68136	97.59518	168.51870	0.05023	93.62708	237.78466	-19.33821	486.87087	148.57774	251.24606	98.70022	152.49561	188.66058	94.68189	226.63379	199.66076	487.37316	123.76455	-25.26525	2.41100	271.53863	-21.49806	2.10962	258.52929	-86.94661	3.66673	283.79453	-57.01005	2.96352	162.59166	-32.84985	6.83116	359.18844	-71.97833	2.21008	108.24376	215.83453	4.77177	255.36485	202.37313	0.15069	246.72544	268.52488	1.10504	269.93130	237.03122	0.10046	147.62339	220.90767	7.93620	346.07864	246.97659	-2.96352 
931	3.875	183.73812	84.83699	930.09263	247.42865	-35.36130	1004.13036	249.58850	204.18138	1003.72852	212.97147	-14.16461	1076.00823	214.77972	183.83858	1075.70686	130.34457	35.71291	883.27909	131.24869	134.71450	883.12841	115.92881	85.48996	953.75055	152.39515	85.48996	1025.62842	160.13044	83.63149	1129.90408	171.33153	81.17026	1221.47176	322.21981	75.49437	1281.04350	340.10138	70.72260	1390.24161	203.82977	74.28887	1391.24619	187.40485	77.85514	1311.88418	213.37331	72.78200	1439.36569	385.20713	67.45771	1628.52856	318.10102	3.51604	1557.80596	325.68562	133.76015	1553.33557	275.25558	72.07879	1576.54142	247.42865	-100.86007	1390.89459	236.02664	249.83965	1398.17781	353.81393	-72.93268	1092.73453	338.84565	-13.81301	1093.23682	346.02841	217.64278	1099.71638	323.87737	160.83365	1097.90813	419.26247	-31.19228	874.68991	456.28134	-7.48414	891.56690	328.14685	-57.56257	1085.20016	415.64598	187.15370	882.77680	443.07108	151.49103	896.69027	321.81798	209.30475	1092.58384	559.80355	-29.13289	762.67897	488.22706	-52.08760	796.53340	446.58711	-28.22877	846.66206	553.27377	230.20006	787.54239	483.70644	238.13626	831.04081	439.35412	195.29082	862.93630	179.01659	-63.89144	903.32051	170.07580	-45.25644	522.73446	175.65124	28.17854	520.52438	214.17697	-9.14170	523.33721	179.66957	234.67045	906.18357	158.12127	232.25946	525.64775	163.54602	158.92494	520.12255	202.17221	196.14472	523.23675	157.36784	-61.68136	97.59518	168.56893	0.05023	93.62708	238.03580	-19.33821	486.82064	148.52751	251.24606	98.70022	152.49561	188.66058	94.68189	226.78448	199.66076	487.32293	123.76455	-25.26525	2.41100	271.53863	-21.49806	2.10962	258.57951	-86.89638	3.66673	283.79453	-57.01005	2.96352	162.64189	-32.84985	6.83116	359.18844	-71.97833	2.21008	108.24376	215.83453	4.77177	255.36485	202.32290	0.15069	246.72544	268.52488	1.10504	269.93130	236.98099	0.10046	147.62339	220.90767	7.93620	346.07864	246.97659	-2.96352 
932	3.879	184.13996	84.88721	930.04240	247.73002	-35.31107	1004.23082	249.83965	204.23161	1003.82898	213.17239	-14.11438	1076.05846	214.93041	183.83858	1075.70686	130.84686	35.76313	883.17863	131.70076	134.76473	883.02795	116.28042	85.48996	953.59986	152.64630	85.48996	1025.52796	160.13044	83.68172	1129.80362	171.13062	81.27072	1221.37131	321.81798	75.59483	1281.44533	339.39817	70.87329	1390.64344	203.12657	74.38933	1391.29642	186.90256	77.95560	1311.88418	212.51941	72.88245	1439.46615	384.20255	67.60840	1628.77971	317.09644	3.66673	1558.05710	324.73127	133.91084	1553.53648	274.25100	72.22948	1576.79257	246.72544	-100.75962	1390.99505	235.27320	249.94011	1398.27827	353.46232	-72.63131	1092.93544	338.54428	-13.46140	1093.43774	345.72704	217.64278	1100.01775	323.62623	160.83365	1098.20950	419.16201	-30.68999	874.94106	456.13065	-6.98185	891.91850	327.79524	-57.26120	1085.35085	415.59575	186.95279	883.17863	443.07108	151.39057	897.19256	321.51660	209.30475	1092.88521	559.85378	-28.47991	763.13104	488.22706	-51.48485	796.88500	446.48666	-27.67625	846.96344	553.32400	230.04937	788.04468	483.65621	237.98558	831.44264	439.35412	195.14014	863.33813	179.51888	-63.84121	903.32051	170.37718	-45.25644	522.73446	175.90238	28.17854	520.47415	214.42812	-9.09147	523.28698	180.07140	234.72068	906.13334	158.32219	232.20923	525.64775	163.69671	158.92494	520.12255	202.37313	196.09449	523.18652	157.41807	-61.63113	97.59518	168.56893	0.05023	93.62708	238.28695	-19.28798	486.77041	148.52751	251.24606	98.70022	152.49561	188.61035	94.68189	226.98540	199.61053	487.27270	123.81478	-25.26525	2.41100	271.58886	-21.49806	2.10962	258.57951	-86.94661	3.61650	283.84476	-57.01005	2.96352	162.64189	-32.84985	6.78093	359.23867	-71.97833	2.15985	108.24376	215.78430	4.77177	255.36485	202.37313	0.15069	246.72544	268.52488	1.10504	269.93130	237.03122	0.10046	147.62339	220.90767	7.93620	346.07864	247.07705	-2.96352 
